<mxfile host="app.diagrams.net" modified="2021-02-01T13:29:20.094Z" agent="5.0 (Windows)" etag="4Kol0SZjozJTSWG1OAIe" version="14.2.9" type="github">
  <diagram name="Page-1" id="13e1069c-82ec-6db2-03f1-153e76fe0fe0">
    <mxGraphModel dx="1422" dy="763" grid="1" gridSize="10" guides="1" tooltips="1" connect="1" arrows="1" fold="1" page="1" pageScale="1" pageWidth="1100" pageHeight="850" background="#ffffff" math="0" shadow="0">
      <root>
        <mxCell id="0" />
        <mxCell id="1" parent="0" />
        <mxCell id="Dzq-oq9SQdhuU2cObvgH-19" value="Actor" style="shape=umlActor;verticalLabelPosition=bottom;verticalAlign=top;html=1;" vertex="1" parent="1">
          <mxGeometry x="26" y="20" width="30" height="60" as="geometry" />
        </mxCell>
        <mxCell id="Dzq-oq9SQdhuU2cObvgH-21" value="" style="endArrow=none;dashed=1;html=1;" edge="1" parent="1" target="Dzq-oq9SQdhuU2cObvgH-19">
          <mxGeometry width="50" height="50" relative="1" as="geometry">
            <mxPoint x="41" y="800" as="sourcePoint" />
            <mxPoint x="80" y="130" as="targetPoint" />
          </mxGeometry>
        </mxCell>
        <mxCell id="Dzq-oq9SQdhuU2cObvgH-25" value="&lt;div&gt;direct-worker-api&lt;/div&gt;&lt;div&gt;client&lt;br&gt;&lt;/div&gt;" style="rounded=0;whiteSpace=wrap;html=1;" vertex="1" parent="1">
          <mxGeometry x="100" y="50" width="120" height="60" as="geometry" />
        </mxCell>
        <mxCell id="Dzq-oq9SQdhuU2cObvgH-27" value="&lt;div&gt;direct-worker-api&lt;/div&gt;&lt;div&gt;client&lt;br&gt;&lt;/div&gt;" style="rounded=0;whiteSpace=wrap;html=1;" vertex="1" parent="1">
          <mxGeometry x="100" y="50" width="120" height="60" as="geometry" />
        </mxCell>
        <mxCell id="Dzq-oq9SQdhuU2cObvgH-29" value="&lt;div&gt;worker-api-direct&lt;/div&gt;&lt;div&gt;server&lt;/div&gt;" style="rounded=0;whiteSpace=wrap;html=1;" vertex="1" parent="1">
          <mxGeometry x="240" y="50" width="120" height="60" as="geometry" />
        </mxCell>
        <mxCell id="Dzq-oq9SQdhuU2cObvgH-30" value="" style="endArrow=none;dashed=1;html=1;entryX=0.5;entryY=1;entryDx=0;entryDy=0;" edge="1" parent="1" target="Dzq-oq9SQdhuU2cObvgH-29">
          <mxGeometry width="50" height="50" relative="1" as="geometry">
            <mxPoint x="300" y="800" as="sourcePoint" />
            <mxPoint x="200" y="210" as="targetPoint" />
          </mxGeometry>
        </mxCell>
        <mxCell id="Dzq-oq9SQdhuU2cObvgH-32" value="&lt;div&gt;direct-worker-api&lt;/div&gt;&lt;div&gt;client&lt;br&gt;&lt;/div&gt;" style="rounded=0;whiteSpace=wrap;html=1;" vertex="1" parent="1">
          <mxGeometry x="100" y="50" width="120" height="60" as="geometry" />
        </mxCell>
        <mxCell id="Dzq-oq9SQdhuU2cObvgH-33" value="" style="endArrow=none;dashed=1;html=1;entryX=0.5;entryY=1;entryDx=0;entryDy=0;" edge="1" parent="1" target="Dzq-oq9SQdhuU2cObvgH-32">
          <mxGeometry width="50" height="50" relative="1" as="geometry">
            <mxPoint x="160" y="800" as="sourcePoint" />
            <mxPoint x="190" y="200" as="targetPoint" />
          </mxGeometry>
        </mxCell>
        <mxCell id="Dzq-oq9SQdhuU2cObvgH-36" value="" style="html=1;points=[];perimeter=orthogonalPerimeter;" vertex="1" parent="1">
          <mxGeometry x="160" y="140" width="10" height="80" as="geometry" />
        </mxCell>
        <mxCell id="Dzq-oq9SQdhuU2cObvgH-37" value="get-worker-api-direct" style="html=1;verticalAlign=bottom;endArrow=block;entryX=0;entryY=0;" edge="1" target="Dzq-oq9SQdhuU2cObvgH-36" parent="1">
          <mxGeometry relative="1" as="geometry">
            <mxPoint x="40" y="140" as="sourcePoint" />
          </mxGeometry>
        </mxCell>
        <mxCell id="Dzq-oq9SQdhuU2cObvgH-38" value="return" style="html=1;verticalAlign=bottom;endArrow=open;dashed=1;endSize=8;exitX=0;exitY=0.95;" edge="1" source="Dzq-oq9SQdhuU2cObvgH-36" parent="1">
          <mxGeometry relative="1" as="geometry">
            <mxPoint x="40" y="216" as="targetPoint" />
          </mxGeometry>
        </mxCell>
      </root>
    </mxGraphModel>
  </diagram>
</mxfile>
